<?xml version="1.0" standalone="no"?>
<!DOCTYPE svg PUBLIC "-//W3C//DTD SVG 20010904//EN"
 "http://www.w3.org/TR/2001/REC-SVG-20010904/DTD/svg10.dtd">
<svg version="1.0" xmlns="http://www.w3.org/2000/svg"
 width="90.000000pt" height="90.000000pt" viewBox="0 0 90.000000 90.000000"
 preserveAspectRatio="xMidYMid meet">
<metadata>
Created by potrace 1.14, written by Peter Selinger 2001-2017
</metadata>
<g transform="translate(0.000000,90.000000) scale(0.100000,-0.100000)"
fill="#000000" stroke="none">
<path d="M280 649 c-99 -41 -156 -161 -125 -260 34 -107 153 -168 257 -133 29
10 45 10 80 0 142 -43 267 63 259 219 -3 55 -38 113 -89 150 -40 28 -50 30
-115 27 -111 -4 -128 -4 -187 2 -30 3 -66 1 -80 -5z m126 -19 l27 -11 -23 -21
c-74 -69 -78 -191 -9 -280 l29 -36 -28 -10 c-38 -13 -97 -6 -141 16 -44 23
-90 94 -94 147 -12 134 119 240 239 195z m216 -5 c42 -17 95 -75 104 -113 3
-15 7 -32 9 -38 7 -25 -16 -107 -40 -138 -44 -58 -133 -86 -197 -64 l-28 10
29 36 c63 79 65 175 6 261 -28 42 -30 51 -16 54 36 10 100 6 133 -8z m-131
-58 l22 -32 -31 29 c-18 17 -32 34 -32 38 0 15 18 0 41 -35z m37 -97 c-2 -6
-29 14 -60 46 -31 32 -54 62 -51 67 8 12 117 -97 111 -113z m-59 15 c36 -38
59 -70 55 -77 -7 -11 -134 115 -134 133 0 20 19 6 79 -56z m-30 -36 c58 -58
73 -78 67 -87 -7 -12 -136 119 -136 138 0 14 17 1 69 -51z m42 -122 c-6 -6
-29 11 -60 43 -73 76 -65 98 9 25 36 -36 56 -63 51 -68z m-47 -2 c9 -14 15
-25 13 -25 -2 0 -14 11 -27 25 -13 14 -19 25 -13 25 6 0 18 -11 27 -25z"/>
</g>
</svg>
