<svg width="370" height="47" viewBox="0 0 370 47" fill="none" xmlns="http://www.w3.org/2000/svg">
<path d="M46.7649 0C42.607 0 38.5207 1.09923 34.9602 3.22599C31.4713 1.16295 27.3851 0 23.2351 0C10.4188 0 0 10.4108 0 23.2271C0 36.0435 10.4188 46.4622 23.2351 46.4622C27.3771 46.4622 31.4474 45.371 35 43.2601C38.5526 45.371 42.6229 46.4622 46.7649 46.4622C59.5812 46.4622 70 36.0435 70 23.2271C70 10.4108 59.5812 0 46.7649 0ZM35 40.9502C31.3279 38.4889 28.5799 35.0558 27.0027 31.1288L36.0594 40.1855C35.7169 40.4483 35.3584 40.7032 35 40.9502ZM37.7082 38.7836L25.792 26.8753C25.5849 25.6805 25.4813 24.4618 25.4813 23.2271C25.4813 22.9404 25.4893 22.6536 25.4973 22.3669L39.7076 36.6329C39.0942 37.3976 38.4251 38.1145 37.7082 38.7836ZM40.9979 34.8805L25.792 19.6188C25.9911 18.4638 26.2779 17.3407 26.6602 16.2494L42.5273 32.1165C42.0812 33.0724 41.5715 33.9964 40.9979 34.8805ZM43.3796 29.926L27.5444 14.0828C27.9825 13.1668 28.4843 12.2827 29.0498 11.4304L44.1921 26.5726C44.0089 27.7196 43.738 28.8427 43.3796 29.926ZM30.3402 9.68593C30.9695 8.92126 31.6545 8.1964 32.3953 7.51138L44.0726 19.1887C44.3195 20.503 44.447 21.8491 44.447 23.2271C44.447 23.4103 44.447 23.5935 44.439 23.7847L30.3402 9.68593ZM34.0601 6.13336C34.3548 5.91033 34.6655 5.69527 34.9761 5.4802C38.5287 7.81406 41.1971 11.0799 42.7822 14.8475L34.0601 6.13336ZM1.95152 23.2271C1.95152 11.4622 11.4702 1.94356 23.2351 1.94356C26.7558 1.94356 30.1331 2.764 33.1998 4.41284C27.1302 8.76195 23.6095 15.7317 23.6095 23.2271C23.6095 30.7226 27.2098 37.6923 33.1998 42.0414C30.1252 43.6903 26.6761 44.5107 23.2351 44.5107C11.4702 44.5187 1.95152 35 1.95152 23.2271ZM46.7649 44.5187C43.2442 44.5187 39.8669 43.6982 36.8002 42.0494C42.8698 37.7003 46.3905 30.7305 46.3905 23.2351C46.3905 15.7396 42.8698 8.76195 36.8002 4.4208C39.8748 2.77196 43.2442 1.95153 46.7649 1.95153C58.5298 1.95153 68.0485 11.4702 68.0485 23.2351C68.0564 35 58.5378 44.5187 46.7649 44.5187Z" fill="#FEAE8F"/>
<path d="M105.382 39.482C101.156 39.482 97.2261 37.834 94.4793 35.1295C93.1271 33.7772 92.0284 32.1292 91.2255 30.1853C90.4226 28.1992 90 26.0863 90 23.8467C90 21.5647 90.4226 19.4096 91.2677 17.4235C92.1129 15.4374 93.2116 13.7471 94.6061 12.3948C97.4374 9.64805 101.367 8 105.509 8C108.762 8 111.72 8.97193 113.707 10.3664C114.721 11.0426 115.608 11.8455 116.411 12.7329C117.975 14.55 118.82 16.367 119.285 18.1419L116.2 19.2406C115.946 18.2264 115.524 17.1277 114.383 15.5219C113.791 14.719 113.157 14.0006 112.397 13.3667C111.636 12.7329 110.664 12.1835 109.439 11.7609C108.213 11.2961 106.903 11.0848 105.424 11.0848C102.212 11.0848 99.1277 12.3948 96.9725 14.55C94.7751 16.7474 93.3806 20.0012 93.3806 23.6354C93.3806 26.0441 93.8877 28.2415 94.9442 30.1853C95.9583 32.1292 97.3951 33.6505 99.2967 34.7492C101.114 35.8479 103.184 36.3972 105.466 36.3972C108.298 36.3972 110.749 35.4253 112.228 34.2421C112.988 33.6505 113.664 32.9743 114.256 32.1292C114.848 31.3263 115.27 30.6079 115.566 30.0163C115.819 29.4247 116.073 28.7908 116.284 28.157L119.369 29.2557C118.904 30.9037 118.101 32.594 116.538 34.4956C115.777 35.4253 114.848 36.2704 113.876 36.9888C111.847 38.4256 108.762 39.482 105.382 39.482ZM144.682 8.33806H147.935V27.1005C147.935 30.9882 146.879 34.0308 144.893 36.1859C142.864 38.3411 139.991 39.4398 136.315 39.4398C132.68 39.4398 129.807 38.3411 127.821 36.1437C125.792 33.9463 124.778 31.0305 124.778 27.3118V8.33806H127.99V27.1428C127.99 30.3966 128.919 32.8898 130.441 34.2843C132.004 35.7211 133.99 36.3972 136.484 36.3972C139.104 36.3972 141.132 35.6366 142.569 34.0308C143.963 32.425 144.682 30.2276 144.682 27.3118V8.33806V8.33806ZM156.049 39.144V8.33806H159.303V39.144H156.049ZM176.375 39.4398C173.459 39.4398 170.67 38.3411 168.853 36.7353C166.951 35.0872 165.726 32.8898 165.472 30.7347L168.515 29.8895C168.853 31.7066 169.783 33.2279 171.304 34.4956C172.783 35.7634 174.473 36.3972 176.375 36.3972C178.15 36.3972 179.798 35.9746 181.108 35.045C182.418 34.1576 183.263 32.6363 183.263 30.7769C183.263 28.6218 182.122 27.2273 180.685 26.3821C179.671 25.7905 178.784 25.537 177.769 25.3257L173.713 24.5228C172.867 24.3538 171.98 24.058 171.008 23.6354C170.036 23.1705 169.191 22.6212 168.473 21.9028C167.036 20.5083 166.318 18.7335 166.318 16.5783C166.318 14.888 166.782 13.3667 167.712 12.0567C168.642 10.7045 169.825 9.73257 171.304 9.01419C172.783 8.33806 174.347 8 176.079 8C182.714 8 185.629 12.099 186.263 15.3951L183.305 16.3248C182.798 14.1274 180.812 11.0003 176.037 11.0003C172.741 10.9158 169.529 13.24 169.571 16.4516C169.571 18.818 171.05 20.7196 174.051 21.3112L177.938 22.0718C180.558 22.5789 182.587 23.4663 183.939 24.7763C184.869 25.6215 185.545 26.5934 185.967 27.6076C186.39 28.664 186.601 29.5937 186.601 30.4389C186.644 35.8479 182.08 39.5666 176.375 39.4398V39.4398ZM193.067 39.144V8.33806H196.321V39.144H193.067ZM226.788 8.33806H229.958V39.144H226.45L208.068 12.9442V39.144H204.857V8.33806H208.618L226.788 34.2421V8.33806ZM238.536 39.144V8.33806H257.806V11.3384H241.79V21.9873H256.453V24.9876H241.79V36.1437H257.975V39.144H238.536ZM274.455 27.1005H267.905V39.144H264.651V8.33806H274.962C282.484 8.2958 285.78 12.8174 285.78 17.5925C285.78 20.2548 284.766 22.5789 282.949 24.3115C281.09 26.0441 278.089 27.1005 274.455 27.1005ZM274.709 11.3806H267.905V24.1002H274.54C277.286 24.1002 279.442 23.2973 280.667 22.0296C281.893 20.8041 282.484 19.2828 282.484 17.677C282.484 14.6767 280.752 11.3806 274.709 11.3806V11.3806ZM291.443 39.144V8.33806H294.697V36.1014H309.318V39.144H291.443V39.144ZM337.081 39.144L333.701 31.284H316.924L313.544 39.144H310.248L323.516 8.33806H327.193L340.504 39.144H337.081ZM332.475 28.326L325.291 11.6764L318.15 28.326H332.475ZM366.831 8.33806H370V39.144H366.493L348.11 12.9442V39.144H344.899V8.33806H348.66L366.831 34.2421V8.33806Z" fill="white"/>
</svg>
